<svg width="140" height="106" viewBox="0 0 140 106" fill="none" xmlns="http://www.w3.org/2000/svg">
<g clip-path="url(#clip0_2440_1656)">
<path d="M56.6286 34.2605C55.2267 32.2784 53.882 30.3625 52.5212 28.4581C52.1234 27.9015 51.7188 27.2577 50.8956 27.4099C50.1008 27.5569 49.8539 28.2689 49.6636 28.9236C48.8531 31.7118 47.985 34.4783 46.8622 37.161C44.0599 43.8569 38.9759 47.2442 31.6805 47.2596C28.6478 47.266 25.6149 47.2825 22.5823 47.2648C20.9851 47.2555 19.5325 47.6408 18.3203 48.7033C17.2586 49.6338 16.07 50.045 14.6473 49.9249C13.6435 49.8401 12.6267 49.9188 11.616 49.9034C8.69579 49.8591 6.2308 47.6703 5.78168 44.7351C5.30408 41.6138 6.97534 38.7432 9.82579 37.8327C10.8888 37.4931 12.0011 37.7908 13.0786 37.6648C16.6406 37.2483 19.7474 38.4066 22.696 40.2644C23.9572 41.0591 25.2875 41.769 26.714 42.2372C28.5883 42.8525 29.6044 42.4511 30.5029 40.6897C31.6796 38.3827 32.456 35.9168 33.1959 33.4449C35.4622 25.8739 36.9592 18.1357 38.2837 10.3554C38.9469 6.4599 40.6545 3.13399 44.3417 1.22102C49.3526 -1.37875 55.8712 0.557592 59.252 5.57011C61.5082 8.91519 63.7705 12.2561 66.042 15.5909C67.4448 17.6503 68.3915 17.7809 70.2108 16.0745C74.0095 12.5114 77.6921 8.82072 81.5766 5.35432C85.0983 2.2116 89.308 0.636949 94.0976 0.631588C104.327 0.62014 114.556 0.536706 124.785 0.507068C130.011 0.491927 133.888 4.23096 133.756 9.09924C133.65 13.0283 130.325 16.5996 126.389 16.7644C117.944 17.118 109.491 16.9621 101.042 16.9397C98.1907 16.9322 97.0738 17.9742 96.4763 20.8577C96.1893 22.2425 96.7988 23.5829 97.4315 24.7911C99.1991 28.1663 102.001 30.0829 105.861 30.1768C109.498 30.2652 113.14 30.1615 116.778 30.2181C120.586 30.2773 123.826 32.7129 124.781 36.1249C126.108 40.8668 123.043 45.6708 118.138 46.528C117.221 46.6882 116.299 46.7604 115.364 46.759C109.298 46.75 103.233 46.7768 97.1675 46.7573C94.38 46.7484 92.4586 48.0483 91.357 50.5286C89.4427 54.839 87.9056 59.3116 85.7827 63.533C82.5374 69.9861 77.2327 73.2176 70.0481 73.3803C66.451 73.4617 62.8503 73.426 59.2519 73.3858C57.7658 73.3691 56.4427 73.7213 55.3361 74.7088C54.3417 75.5961 53.2242 75.9518 51.8914 75.8507C50.8059 75.7685 49.7008 75.7485 48.6188 75.8517C45.505 76.1486 42.8148 73.1824 42.6666 69.9375C42.5196 66.7194 44.9925 63.916 48.1872 63.6839C51.7472 63.4252 55.2056 63.6858 58.3434 65.6855C59.5656 66.4645 60.8975 67.0752 62.1936 67.7349C64.8764 69.1005 65.9569 68.82 67.4402 66.191C69.7958 62.0155 71.1698 57.4603 72.478 52.8815C73.2629 50.134 73.7521 47.3031 74.8313 44.6378C75.4461 43.1192 76.3173 41.8041 77.5176 40.6649C79.3904 38.8874 81.2826 37.1145 82.9921 35.1857C85.1052 32.8015 83.8422 28.3293 80.8514 27.1799C79.6488 26.7178 78.6039 26.8851 77.6273 27.8087C73.5792 31.6375 69.4893 35.4222 65.433 39.2425C63.4309 41.1281 61.2759 40.958 59.6999 38.7192C58.6778 37.2672 57.6854 35.7945 56.6286 34.2605ZM115.323 38.3913C115.517 39.6319 116.112 40.202 117.166 40.1058C118.126 40.0182 118.72 39.495 118.811 38.5176C118.892 37.6411 118.173 36.8152 117.22 36.7385C116.178 36.6545 115.605 37.2619 115.323 38.3913ZM126.642 7.36706C125.388 6.85433 124.475 7.07948 124.092 8.03439C123.773 8.83138 123.917 9.56453 124.654 10.0531C125.39 10.5403 126.226 10.6188 126.866 9.95004C127.619 9.16297 127.517 8.28439 126.642 7.36706Z" fill="#4A90E2"/>
<path d="M133.871 90.6849C134.391 90.0045 136.588 89.6761 137.09 90.1068C137.413 90.3831 137.258 90.698 137.163 90.996C135.716 95.5652 134.244 100.127 132.826 104.705C132.499 105.76 131.714 105.57 130.971 105.586C130.205 105.603 129.451 105.699 129.16 104.65C128.501 102.284 127.763 99.939 127.041 97.5906C126.915 97.1801 126.904 96.7074 126.382 96.2685C125.752 98.3677 125.146 100.384 124.544 102.401C124.417 102.826 124.313 103.257 124.185 103.681C123.587 105.67 123.456 105.742 121.381 105.584C120.776 105.538 120.422 105.318 120.242 104.72C118.839 100.052 117.416 95.389 116.005 90.7228C115.961 90.5757 115.977 90.4101 115.961 90.1877C116.892 89.7446 117.853 89.87 118.788 89.988C119.314 90.0543 119.363 90.5971 119.483 91.0209C120.324 94 121.167 96.9788 122.1 100.28C122.918 97.517 123.65 95.0453 124.379 92.5725C124.481 92.2253 124.561 91.8716 124.661 91.5236C125.094 90.0158 126.025 89.5209 127.556 89.9111C128.226 90.0817 128.264 90.6416 128.401 91.1126C129.154 93.7014 129.872 96.3003 130.605 98.8948C130.714 99.2787 130.841 99.6574 131.073 100.403C132.057 96.9806 132.949 93.8811 133.871 90.6849Z" fill="#4A90E2"/>
<path d="M1.32107 89.9302C2.72353 89.6738 3.57142 90.1118 4.22513 91.3465C5.22271 93.2306 6.42598 95.0066 7.55122 96.8229C7.78018 97.1925 7.93808 97.6293 8.39703 97.8445C8.96056 97.6705 9.11599 97.1309 9.37339 96.6982C10.5068 94.7928 11.6206 92.8758 12.7471 90.9663C13.2627 90.0924 15.1246 89.529 16.0287 89.9472C16.4802 90.1561 16.5344 90.5507 16.5349 90.957C16.5403 95.4699 16.5287 99.9827 16.5416 104.495C16.5453 105.782 15.6439 105.575 14.8498 105.59C14.0443 105.605 13.2792 105.631 13.2913 104.466C13.3172 101.98 13.2993 99.4947 13.2993 96.7098C12.0395 98.2114 11.3476 99.706 10.4665 101.073C9.20778 103.027 7.61284 103.038 6.38507 101.072C5.51283 99.6747 4.63388 98.282 3.4792 96.9187C3.4792 97.5288 3.4798 98.1389 3.47909 98.7489C3.47688 100.643 3.43607 102.538 3.48671 104.43C3.51471 105.476 2.95355 105.656 2.11441 105.588C1.35989 105.526 0.395961 105.843 0.384251 104.526C0.344862 100.095 0.278913 95.6644 0.235459 91.2337C0.228958 90.5707 0.25674 89.8828 1.32107 89.9302Z" fill="#4A90E2"/>
<path d="M41.5149 105.479C38.7489 105.737 38.7483 105.737 38.7467 103.074C38.7442 99.1629 38.769 95.2518 38.7225 91.3415C38.7104 90.3212 38.9876 89.8729 40.0837 89.9205C42.3007 90.0169 44.52 89.6633 46.741 89.9111C49.3323 90.2003 51.1655 91.7596 51.5121 93.9829C51.9677 96.9052 50.9086 98.8552 48.2518 99.9901C48.1094 100.051 47.9749 100.13 47.8434 100.197C48.3623 101.821 49.4808 102.775 51.0774 102.799C52.1371 102.815 52.4701 103.243 52.4867 104.262C52.5041 105.325 52.0329 105.714 51.0578 105.742C49.3637 105.791 47.8651 105.348 46.6707 104.084C45.8623 103.228 45.1824 102.279 44.5882 101.268C44.3085 100.792 43.9849 100.467 43.3659 100.432C42.0194 100.357 41.8802 100.503 41.8106 101.865C41.7498 103.054 42.1035 104.269 41.5149 105.479ZM46.839 92.9682C46.2811 92.9096 45.7221 92.7913 45.1656 92.802C41.1763 92.8789 41.8941 92.0443 41.8236 96.2663C41.8229 96.3064 41.8275 96.3468 41.8247 96.3867C41.7811 96.9945 42.0801 97.2405 42.6743 97.2914C43.8389 97.3909 44.9964 97.4879 46.1675 97.3485C47.2755 97.2166 48.0984 96.7793 48.3052 95.593C48.5076 94.4318 48.1174 93.5486 46.839 92.9682Z" fill="#4A90E2"/>
<path d="M112.763 103.274C108.512 107.095 102.576 106.503 99.8064 102.051C98.1084 99.3207 98.275 95.6781 100.223 92.9501C102.022 90.4293 105.422 89.1318 108.466 89.8045C111.797 90.5408 114.261 93.069 114.852 96.3014C115.338 98.9543 114.567 101.22 112.763 103.274ZM106.269 92.8042C104.129 93.0937 102.736 94.267 102.137 96.337C101.129 99.8186 104.004 103.296 107.363 102.676C109.959 102.196 111.889 99.9124 111.718 97.5206C111.516 94.699 109.42 92.81 106.269 92.8042Z" fill="#4A90E2"/>
<path d="M21.7101 100.082C23.0348 97.0457 24.3734 94.1144 25.5779 91.1293C26.0559 89.9446 26.8827 89.9449 27.8938 89.9177C28.8666 89.8915 29.438 90.1854 29.8367 91.1215C31.682 95.4538 33.5955 99.7572 35.4767 104.074C36.0159 105.312 35.8374 105.478 34.5097 105.611C33.1137 105.75 32.2511 105.281 31.9252 103.909C31.6354 102.688 30.8957 102.241 29.632 102.339C28.2678 102.444 26.8867 102.413 25.5176 102.346C24.4692 102.295 23.9266 102.697 23.5518 103.685C22.7912 105.689 22.5545 105.756 20.5217 105.599C19.7079 105.537 19.5406 105.186 19.8308 104.499C20.4412 103.053 21.0568 101.609 21.7101 100.082ZM25.9876 98.0969C25.8812 98.4194 25.5909 98.7208 25.919 99.1684C27.1227 99.1777 28.3733 99.3054 29.7508 99.0632C29.1337 97.3704 28.5318 95.8738 27.6268 94.2368C27.0442 95.6035 26.548 96.7675 25.9876 98.0969Z" fill="#4A90E2"/>
<path d="M58.7557 103.339C58.744 105.487 58.6944 105.562 57.3434 105.588C55.6197 105.621 55.5141 105.513 55.513 103.748C55.5106 99.6366 55.552 95.5241 55.4777 91.4137C55.4537 90.0851 56.0635 89.92 57.1669 89.9035C58.2928 89.8867 58.8045 90.1981 58.754 91.3965C58.6847 93.0409 58.7367 94.6905 58.7367 96.7269C60.5248 94.7492 62.0816 93.037 63.6274 91.3151C64.933 89.8607 66.5225 89.487 68.4691 90.2017C68.6001 90.638 68.2623 90.8617 68.0274 91.1189C66.4765 92.8167 64.9226 94.5117 63.3616 96.2003C62.2621 97.3896 62.2751 97.3678 63.3886 98.6134C65.0555 100.478 66.6956 102.366 68.3406 104.25C68.5974 104.544 68.9343 104.809 68.8929 105.263C67.3184 106.023 65.4246 105.677 64.3237 104.433C62.9922 102.928 61.6681 101.417 60.3585 99.9285C58.8453 100.662 58.609 101.856 58.7557 103.339Z" fill="#4A90E2"/>
<path d="M81.9212 96.7449C83.379 96.9435 82.9061 97.9641 82.9106 98.7343C82.9151 99.5051 82.4166 99.7482 81.7042 99.7427C80.0894 99.7304 78.4712 99.8094 76.8606 99.7277C75.6729 99.6674 75.1513 100.001 75.276 101.272C75.3816 102.349 75.2615 103.446 75.3019 104.532C75.3441 105.664 74.5821 105.601 73.8372 105.586C73.0859 105.571 72.2231 105.747 72.2261 104.532C72.2374 99.9816 72.2335 95.4313 72.2236 90.881C72.2222 90.2173 72.5147 89.9478 73.1724 89.9436C76.3609 89.9235 79.5493 89.8834 82.7378 89.8508C83.6095 89.8419 83.8407 90.364 83.7808 91.1159C83.7228 91.8417 83.9671 92.7391 82.7587 92.7876C80.7424 92.8685 78.726 93.0154 76.7111 92.7969C75.7023 92.6875 75.2456 92.9947 75.2786 94.1138C75.3707 97.2315 74.9721 96.68 77.9338 96.7337C79.2253 96.7571 80.5175 96.7395 81.9212 96.7449Z" fill="#4A90E2"/>
<path d="M91.9585 105.591C90.545 105.59 89.2527 105.573 87.9608 105.592C87.1595 105.603 86.7812 105.285 86.7841 104.448C86.7994 99.9776 86.8133 95.5067 86.7731 91.0365C86.761 89.699 87.664 89.9881 88.4282 89.9323C89.2974 89.8688 89.895 89.9927 89.8784 91.1214C89.8287 94.5038 89.8948 97.8879 89.8432 101.27C89.8279 102.278 90.159 102.616 91.1597 102.579C92.8127 102.517 94.4708 102.598 96.1254 102.561C97.4044 102.533 97.3613 103.348 97.3951 104.252C97.4317 105.233 97.0956 105.648 96.0767 105.603C94.7469 105.544 93.4123 105.59 91.9585 105.591Z" fill="#4A90E2"/>
<path d="M137.249 104.528C137.278 103.531 137.818 103.079 138.643 103.108C139.345 103.132 139.856 103.574 139.918 104.33C139.981 105.098 139.521 105.562 138.831 105.712C137.976 105.899 137.451 105.465 137.249 104.528Z" fill="#4A90E2"/>
</g>
<defs>
<clipPath id="clip0_2440_1656">
<rect width="140" height="106" fill="white"/>
</clipPath>
</defs>
</svg>
